<?xml version="1.0" encoding="UTF-8" standalone="no"?>
<!DOCTYPE svg PUBLIC "-//W3C//DTD SVG 1.1//EN"
 "http://www.w3.org/Graphics/SVG/1.1/DTD/svg11.dtd">
<!-- Generated by graphviz version 2.38.0 (20140413.2041)
 -->
<!-- Title: %3 Pages: 1 -->
<svg width="1008pt" height="492pt"
 viewBox="0.00 0.00 1008.00 492.27" xmlns="http://www.w3.org/2000/svg" xmlns:xlink="http://www.w3.org/1999/xlink">
<g id="graph0" class="graph" transform="scale(0.496502 0.496502) rotate(0) translate(4 987.481)">
<title>%3</title>
<polygon fill="white" stroke="none" points="-4,4 -4,-987.481 2026.2,-987.481 2026.2,4 -4,4"/>
<!-- github.com/go&#45;modules&#45;by&#45;example&#45;staging/\nlistmodwhygraph -->
<g id="node1" class="node"><title>github.com/go&#45;modules&#45;by&#45;example&#45;staging/\nlistmodwhygraph</title>
<polygon fill="#e94762" stroke="none" points="1329.24,-608.46 769.244,-608.46 769.244,-548.46 1329.24,-548.46 1329.24,-608.46"/>
<text text-anchor="middle" x="1049.24" y="-585.26" font-family="Helvetica,sans-Serif" font-size="24.00">github.com/go&#45;modules&#45;by&#45;example&#45;staging/</text>
<text text-anchor="middle" x="1049.24" y="-559.26" font-family="Helvetica,sans-Serif" font-size="24.00">listmodwhygraph</text>
</g>
<!-- github.com/go&#45;modules&#45;by&#45;example&#45;staging/\nincomplete -->
<g id="node2" class="node"><title>github.com/go&#45;modules&#45;by&#45;example&#45;staging/\nincomplete</title>
<text text-anchor="middle" x="948.079" y="-850.011" font-family="Helvetica,sans-Serif" font-size="24.00">github.com/go&#45;modules&#45;by&#45;example&#45;staging/</text>
<text text-anchor="middle" x="948.079" y="-824.011" font-family="Helvetica,sans-Serif" font-size="24.00">incomplete</text>
</g>
<!-- github.com/go&#45;modules&#45;by&#45;example&#45;staging/\nlistmodwhygraph&#45;&gt;github.com/go&#45;modules&#45;by&#45;example&#45;staging/\nincomplete -->
<g id="edge1" class="edge"><title>github.com/go&#45;modules&#45;by&#45;example&#45;staging/\nlistmodwhygraph&#45;&gt;github.com/go&#45;modules&#45;by&#45;example&#45;staging/\nincomplete</title>
<path fill="none" stroke="black" d="M1037.74,-608.573C1019.41,-656.546 983.568,-750.334 963.192,-803.66"/>
<polygon fill="black" stroke="black" points="959.875,-802.536 959.575,-813.126 966.414,-805.034 959.875,-802.536"/>
</g>
<!-- github.com/kr/\npretty -->
<g id="node3" class="node"><title>github.com/kr/\npretty</title>
<text text-anchor="middle" x="671.121" y="-659.727" font-family="Helvetica,sans-Serif" font-size="24.00">github.com/kr/</text>
<text text-anchor="middle" x="671.121" y="-633.727" font-family="Helvetica,sans-Serif" font-size="24.00">pretty</text>
</g>
<!-- github.com/go&#45;modules&#45;by&#45;example&#45;staging/\nlistmodwhygraph&#45;&gt;github.com/kr/\npretty -->
<g id="edge2" class="edge"><title>github.com/go&#45;modules&#45;by&#45;example&#45;staging/\nlistmodwhygraph&#45;&gt;github.com/kr/\npretty</title>
<path fill="none" stroke="black" d="M896.809,-608.481C856.973,-616.326 814.88,-624.615 777.977,-631.883"/>
<polygon fill="black" stroke="black" points="776.847,-628.538 767.712,-633.905 778.2,-635.406 776.847,-628.538"/>
</g>
<!-- github.com/sirupsen/\nlogrus -->
<g id="node4" class="node"><title>github.com/sirupsen/\nlogrus</title>
<text text-anchor="middle" x="1545.66" y="-621.495" font-family="Helvetica,sans-Serif" font-size="24.00">github.com/sirupsen/</text>
<text text-anchor="middle" x="1545.66" y="-595.495" font-family="Helvetica,sans-Serif" font-size="24.00">logrus</text>
</g>
<!-- github.com/go&#45;modules&#45;by&#45;example&#45;staging/\nlistmodwhygraph&#45;&gt;github.com/sirupsen/\nlogrus -->
<g id="edge3" class="edge"><title>github.com/go&#45;modules&#45;by&#45;example&#45;staging/\nlistmodwhygraph&#45;&gt;github.com/sirupsen/\nlogrus</title>
<path fill="none" stroke="black" d="M1329.37,-598.908C1353.59,-600.676 1377.4,-602.413 1399.85,-604.052"/>
<polygon fill="black" stroke="black" points="1399.84,-607.561 1410.07,-604.798 1400.35,-600.579 1399.84,-607.561"/>
</g>
<!-- golang.org/x/tools -->
<g id="node5" class="node"><title>golang.org/x/tools</title>
<text text-anchor="middle" x="887.475" y="-263.25" font-family="Helvetica,sans-Serif" font-size="24.00">golang.org/x/tools</text>
</g>
<!-- github.com/go&#45;modules&#45;by&#45;example&#45;staging/\nlistmodwhygraph&#45;&gt;golang.org/x/tools -->
<g id="edge4" class="edge"><title>github.com/go&#45;modules&#45;by&#45;example&#45;staging/\nlistmodwhygraph&#45;&gt;golang.org/x/tools</title>
<path fill="none" stroke="black" d="M1033.44,-548.269C1001.96,-488.136 931.872,-354.256 901.719,-296.658"/>
<polygon fill="black" stroke="black" points="904.806,-295.01 897.068,-287.774 898.605,-298.257 904.806,-295.01"/>
</g>
<!-- github.com/kr/\ntext -->
<g id="node6" class="node"><title>github.com/kr/\ntext</title>
<text text-anchor="middle" x="358.073" y="-739.797" font-family="Helvetica,sans-Serif" font-size="24.00">github.com/kr/</text>
<text text-anchor="middle" x="358.073" y="-713.797" font-family="Helvetica,sans-Serif" font-size="24.00">text</text>
</g>
<!-- github.com/kr/\npretty&#45;&gt;github.com/kr/\ntext -->
<g id="edge5" class="edge"><title>github.com/kr/\npretty&#45;&gt;github.com/kr/\ntext</title>
<path fill="none" stroke="black" d="M574.215,-677.713C539.5,-686.593 500.185,-696.648 464.694,-705.726"/>
<polygon fill="black" stroke="black" points="463.612,-702.39 454.792,-708.259 465.347,-709.172 463.612,-702.39"/>
</g>
<!-- github.com/davecgh/\ngo&#45;spew -->
<g id="node8" class="node"><title>github.com/davecgh/\ngo&#45;spew</title>
<text text-anchor="middle" x="1886.2" y="-644.859" font-family="Helvetica,sans-Serif" font-size="24.00">github.com/davecgh/</text>
<text text-anchor="middle" x="1886.2" y="-618.859" font-family="Helvetica,sans-Serif" font-size="24.00">go&#45;spew</text>
</g>
<!-- github.com/sirupsen/\nlogrus&#45;&gt;github.com/davecgh/\ngo&#45;spew -->
<g id="edge7" class="edge"><title>github.com/sirupsen/\nlogrus&#45;&gt;github.com/davecgh/\ngo&#45;spew</title>
<path fill="none" stroke="black" d="M1681.23,-623.996C1700.5,-625.318 1720.39,-626.683 1739.85,-628.018"/>
<polygon fill="black" stroke="black" points="1739.77,-631.521 1749.99,-628.713 1740.25,-624.537 1739.77,-631.521"/>
</g>
<!-- github.com/konsorten/\ngo&#45;windows&#45;terminal&#45;sequences -->
<g id="node9" class="node"><title>github.com/konsorten/\ngo&#45;windows&#45;terminal&#45;sequences</title>
<text text-anchor="middle" x="1576.66" y="-960.281" font-family="Helvetica,sans-Serif" font-size="24.00">github.com/konsorten/</text>
<text text-anchor="middle" x="1576.66" y="-934.281" font-family="Helvetica,sans-Serif" font-size="24.00">go&#45;windows&#45;terminal&#45;sequences</text>
</g>
<!-- github.com/sirupsen/\nlogrus&#45;&gt;github.com/konsorten/\ngo&#45;windows&#45;terminal&#45;sequences -->
<g id="edge8" class="edge"><title>github.com/sirupsen/\nlogrus&#45;&gt;github.com/konsorten/\ngo&#45;windows&#45;terminal&#45;sequences</title>
<path fill="none" stroke="black" d="M1548.41,-644.76C1553.99,-705.758 1566.65,-844.091 1572.95,-912.96"/>
<polygon fill="black" stroke="black" points="1569.48,-913.357 1573.87,-922.997 1576.45,-912.719 1569.48,-913.357"/>
</g>
<!-- github.com/pmezard/\ngo&#45;difflib -->
<g id="node10" class="node"><title>github.com/pmezard/\ngo&#45;difflib</title>
<text text-anchor="middle" x="1790.92" y="-854.829" font-family="Helvetica,sans-Serif" font-size="24.00">github.com/pmezard/</text>
<text text-anchor="middle" x="1790.92" y="-828.829" font-family="Helvetica,sans-Serif" font-size="24.00">go&#45;difflib</text>
</g>
<!-- github.com/sirupsen/\nlogrus&#45;&gt;github.com/pmezard/\ngo&#45;difflib -->
<g id="edge9" class="edge"><title>github.com/sirupsen/\nlogrus&#45;&gt;github.com/pmezard/\ngo&#45;difflib</title>
<path fill="none" stroke="black" d="M1577.22,-644.722C1621.8,-687.133 1703.16,-764.539 1751.61,-810.63"/>
<polygon fill="black" stroke="black" points="1749.43,-813.391 1759.09,-817.748 1754.26,-808.319 1749.43,-813.391"/>
</g>
<!-- github.com/stretchr/\nobjx -->
<g id="node11" class="node"><title>github.com/stretchr/\nobjx</title>
<text text-anchor="middle" x="1367.62" y="-827.356" font-family="Helvetica,sans-Serif" font-size="24.00">github.com/stretchr/</text>
<text text-anchor="middle" x="1367.62" y="-801.356" font-family="Helvetica,sans-Serif" font-size="24.00">objx</text>
</g>
<!-- github.com/sirupsen/\nlogrus&#45;&gt;github.com/stretchr/\nobjx -->
<g id="edge10" class="edge"><title>github.com/sirupsen/\nlogrus&#45;&gt;github.com/stretchr/\nobjx</title>
<path fill="none" stroke="black" d="M1519.39,-645.071C1487.74,-681.664 1434.56,-743.151 1400.3,-782.772"/>
<polygon fill="black" stroke="black" points="1397.6,-780.538 1393.71,-790.391 1402.9,-785.117 1397.6,-780.538"/>
</g>
<!-- github.com/stretchr/\ntestify -->
<g id="node12" class="node"><title>github.com/stretchr/\ntestify</title>
<text text-anchor="middle" x="1819.8" y="-422.532" font-family="Helvetica,sans-Serif" font-size="24.00">github.com/stretchr/</text>
<text text-anchor="middle" x="1819.8" y="-396.532" font-family="Helvetica,sans-Serif" font-size="24.00">testify</text>
</g>
<!-- github.com/sirupsen/\nlogrus&#45;&gt;github.com/stretchr/\ntestify -->
<g id="edge11" class="edge"><title>github.com/sirupsen/\nlogrus&#45;&gt;github.com/stretchr/\ntestify</title>
<path fill="none" stroke="black" d="M1587,-584.693C1635.98,-549.142 1717.55,-489.947 1769.97,-451.897"/>
<polygon fill="black" stroke="black" points="1772.09,-454.685 1778.13,-445.979 1767.98,-449.02 1772.09,-454.685"/>
</g>
<!-- golang.org/x/crypto -->
<g id="node13" class="node"><title>golang.org/x/crypto</title>
<text text-anchor="middle" x="1619.15" y="-279.845" font-family="Helvetica,sans-Serif" font-size="24.00">golang.org/x/crypto</text>
</g>
<!-- github.com/sirupsen/\nlogrus&#45;&gt;golang.org/x/crypto -->
<g id="edge12" class="edge"><title>github.com/sirupsen/\nlogrus&#45;&gt;golang.org/x/crypto</title>
<path fill="none" stroke="black" d="M1552.37,-584.659C1566.51,-521.446 1599.15,-375.459 1612.88,-314.058"/>
<polygon fill="black" stroke="black" points="1616.3,-314.806 1615.07,-304.283 1609.47,-313.278 1616.3,-314.806"/>
</g>
<!-- golang.org/x/sys -->
<g id="node14" class="node"><title>golang.org/x/sys</title>
<text text-anchor="middle" x="1389.71" y="-383.382" font-family="Helvetica,sans-Serif" font-size="24.00">golang.org/x/sys</text>
</g>
<!-- github.com/sirupsen/\nlogrus&#45;&gt;golang.org/x/sys -->
<g id="edge13" class="edge"><title>github.com/sirupsen/\nlogrus&#45;&gt;golang.org/x/sys</title>
<path fill="none" stroke="black" d="M1524.63,-584.336C1493.89,-539.967 1437.2,-458.13 1408.06,-416.068"/>
<polygon fill="black" stroke="black" points="1410.85,-413.951 1402.28,-407.724 1405.09,-417.938 1410.85,-413.951"/>
</g>
<!-- golang.org/x/net -->
<g id="node15" class="node"><title>golang.org/x/net</title>
<text text-anchor="middle" x="756.654" y="-11.8" font-family="Helvetica,sans-Serif" font-size="24.00">golang.org/x/net</text>
</g>
<!-- golang.org/x/tools&#45;&gt;golang.org/x/net -->
<g id="edge14" class="edge"><title>golang.org/x/tools&#45;&gt;golang.org/x/net</title>
<path fill="none" stroke="black" d="M878.066,-251.366C855.399,-207.796 797.655,-96.8068 770.794,-45.1775"/>
<polygon fill="black" stroke="black" points="773.874,-43.5135 766.153,-36.2577 767.664,-46.7443 773.874,-43.5135"/>
</g>
<!-- github.com/kr/\npty -->
<g id="node7" class="node"><title>github.com/kr/\npty</title>
<text text-anchor="middle" x="96.5" y="-809.192" font-family="Helvetica,sans-Serif" font-size="24.00">github.com/kr/</text>
<text text-anchor="middle" x="96.5" y="-783.192" font-family="Helvetica,sans-Serif" font-size="24.00">pty</text>
</g>
<!-- github.com/kr/\ntext&#45;&gt;github.com/kr/\npty -->
<g id="edge6" class="edge"><title>github.com/kr/\ntext&#45;&gt;github.com/kr/\npty</title>
<path fill="none" stroke="black" d="M261.416,-758.64C242.368,-763.693 222.281,-769.022 202.932,-774.156"/>
<polygon fill="black" stroke="black" points="201.964,-770.791 193.196,-776.738 203.759,-777.557 201.964,-770.791"/>
</g>
</g>
</svg>
